<svg xmlns="http://www.w3.org/2000/svg" xmlns:xlink="http://www.w3.org/1999/xlink" width="3780" zoomAndPan="magnify" viewBox="0 0 2835 1417.499962" height="1890" preserveAspectRatio="xMidYMid meet" version="1.2"><defs><clipPath id="8839831bd0"><path d="M 0.5 0 L 2834.5 0 L 2834.5 1417 L 0.5 1417 Z M 0.5 0 "/></clipPath><clipPath id="fa6cd7b31f"><path d="M 0.5 141.699219 L 2380 141.699219 L 2380 1126 L 0.5 1126 Z M 0.5 141.699219 "/></clipPath><clipPath id="85e7484a27"><path d="M 1786 967 L 2834.5 967 L 2834.5 1179 L 1786 1179 Z M 1786 967 "/></clipPath></defs><g id="0b4399c62d"><g clip-rule="nonzero" clip-path="url(#8839831bd0)"><path style=" stroke:none;fill-rule:nonzero;fill:#ffffff;fill-opacity:1;" d="M 0.5 0 L 2834.5 0 L 2834.5 1417 L 0.5 1417 Z M 0.5 0 "/><path style=" stroke:none;fill-rule:nonzero;fill:#ffffff;fill-opacity:1;" d="M 0.5 0 L 2834.855469 0 L 2834.855469 1417.175781 L 0.5 1417.175781 Z M 0.5 0 "/></g><g style="fill:#000000;fill-opacity:1;"><g transform="translate(1868.194234, 735.824098)"><path style="stroke:none" d="M 8.265625 0 L 8.265625 -2.46875 C 11.203125 -3.40625 13.109375 -5.367188 13.984375 -8.359375 C 14.867188 -11.347656 15.3125 -16.007812 15.3125 -22.34375 L 15.3125 -100.84375 C 15.3125 -107.175781 14.867188 -111.835938 13.984375 -114.828125 C 13.109375 -117.816406 11.203125 -119.78125 8.265625 -120.71875 L 8.265625 -123.1875 L 45.234375 -123.1875 C 55.316406 -123.1875 63.554688 -122.097656 69.953125 -119.921875 C 76.347656 -117.753906 81.332031 -114.941406 84.90625 -111.484375 C 88.488281 -108.023438 90.984375 -104.300781 92.390625 -100.3125 C 93.796875 -96.320312 94.5 -92.566406 94.5 -89.046875 C 94.5 -81.773438 92.679688 -75.03125 89.046875 -68.8125 C 85.410156 -62.59375 79.78125 -57.632812 72.15625 -53.9375 C 64.53125 -50.238281 54.675781 -48.390625 42.59375 -48.390625 L 33.96875 -48.390625 L 33.96875 -22.34375 C 33.96875 -16.007812 34.40625 -11.347656 35.28125 -8.359375 C 36.164062 -5.367188 38.070312 -3.40625 41 -2.46875 L 41 0 Z M 33.96875 -51.21875 L 41.703125 -51.21875 C 53.203125 -51.21875 61.5625 -54.265625 66.78125 -60.359375 C 72.007812 -66.460938 74.625 -74.5 74.625 -84.46875 C 74.625 -88.226562 74.09375 -92.1875 73.03125 -96.34375 C 71.976562 -100.507812 70.128906 -104.410156 67.484375 -108.046875 C 64.847656 -111.691406 61.238281 -114.65625 56.65625 -116.9375 C 52.082031 -119.226562 46.335938 -120.375 39.421875 -120.375 C 37.421875 -120.375 35.601562 -120.253906 33.96875 -120.015625 Z M 33.96875 -51.21875 "/></g></g><g style="fill:#000000;fill-opacity:1;"><g transform="translate(2001.765699, 735.824098)"><path style="stroke:none" d="M 8.265625 0 L 8.265625 -2.46875 C 11.203125 -3.40625 13.109375 -5.367188 13.984375 -8.359375 C 14.867188 -11.347656 15.3125 -16.007812 15.3125 -22.34375 L 15.3125 -100.84375 C 15.3125 -107.175781 14.867188 -111.835938 13.984375 -114.828125 C 13.109375 -117.816406 11.203125 -119.78125 8.265625 -120.71875 L 8.265625 -123.1875 L 41 -123.1875 L 41 -120.71875 C 38.070312 -119.78125 36.164062 -117.816406 35.28125 -114.828125 C 34.40625 -111.835938 33.96875 -107.175781 33.96875 -100.84375 L 33.96875 -66.875 L 95.203125 -66.875 L 95.203125 -100.84375 C 95.203125 -107.175781 94.757812 -111.835938 93.875 -114.828125 C 93 -117.816406 91.097656 -119.78125 88.171875 -120.71875 L 88.171875 -123.1875 L 120.90625 -123.1875 L 120.90625 -120.71875 C 117.96875 -119.78125 116.054688 -117.816406 115.171875 -114.828125 C 114.296875 -111.835938 113.859375 -107.175781 113.859375 -100.84375 L 113.859375 -22.34375 C 113.859375 -16.007812 114.296875 -11.347656 115.171875 -8.359375 C 116.054688 -5.367188 117.96875 -3.40625 120.90625 -2.46875 L 120.90625 0 L 88.171875 0 L 88.171875 -2.46875 C 91.097656 -3.40625 93 -5.367188 93.875 -8.359375 C 94.757812 -11.347656 95.203125 -16.007812 95.203125 -22.34375 L 95.203125 -63.703125 L 33.96875 -63.703125 L 33.96875 -22.34375 C 33.96875 -16.007812 34.40625 -11.347656 35.28125 -8.359375 C 36.164062 -5.367188 38.070312 -3.40625 41 -2.46875 L 41 0 Z M 8.265625 0 "/></g></g><g style="fill:#000000;fill-opacity:1;"><g transform="translate(2166.134279, 735.824098)"><path style="stroke:none" d="M 72.5 1.765625 C 65 1.765625 57.550781 0.503906 50.15625 -2.015625 C 42.757812 -4.546875 35.984375 -8.421875 29.828125 -13.640625 C 23.671875 -18.859375 18.742188 -25.484375 15.046875 -33.515625 C 11.347656 -41.554688 9.5 -51.09375 9.5 -62.125 C 9.5 -70.800781 11.023438 -78.921875 14.078125 -86.484375 C 17.128906 -94.054688 21.441406 -100.6875 27.015625 -106.375 C 32.585938 -112.070312 39.242188 -116.53125 46.984375 -119.75 C 54.734375 -122.976562 63.238281 -124.59375 72.5 -124.59375 C 79.894531 -124.59375 87.316406 -123.300781 94.765625 -120.71875 C 102.210938 -118.144531 108.988281 -114.242188 115.09375 -109.015625 C 121.195312 -103.796875 126.09375 -97.195312 129.78125 -89.21875 C 133.476562 -81.238281 135.328125 -71.851562 135.328125 -61.0625 C 135.328125 -50.382812 133.476562 -41.085938 129.78125 -33.171875 C 126.09375 -25.253906 121.164062 -18.710938 115 -13.546875 C 108.84375 -8.390625 102.066406 -4.546875 94.671875 -2.015625 C 87.285156 0.503906 79.894531 1.765625 72.5 1.765625 Z M 27.8125 -72.859375 C 28.394531 -64.054688 30.179688 -55.519531 33.171875 -47.25 C 36.160156 -38.976562 40.0625 -31.585938 44.875 -25.078125 C 49.6875 -18.566406 55.289062 -13.375 61.6875 -9.5 C 68.082031 -5.632812 75.03125 -3.703125 82.53125 -3.703125 C 91.570312 -3.703125 98.726562 -5.722656 104 -9.765625 C 109.28125 -13.816406 113.003906 -19.125 115.171875 -25.6875 C 117.347656 -32.257812 118.144531 -39.414062 117.5625 -47.15625 C 116.851562 -56.550781 115.085938 -65.585938 112.265625 -74.265625 C 109.453125 -82.941406 105.671875 -90.738281 100.921875 -97.65625 C 96.171875 -104.582031 90.628906 -110.039062 84.296875 -114.03125 C 77.960938 -118.019531 70.984375 -120.015625 63.359375 -120.015625 C 55.378906 -120.015625 48.628906 -118.078125 43.109375 -114.203125 C 37.597656 -110.335938 33.519531 -104.851562 30.875 -97.75 C 28.238281 -90.65625 27.21875 -82.359375 27.8125 -72.859375 Z M 27.8125 -72.859375 "/></g></g><g style="fill:#000000;fill-opacity:1;"><g transform="translate(2345.637491, 735.824098)"><path style="stroke:none" d="M 8.265625 0 L 8.265625 -2.46875 C 11.203125 -3.40625 13.109375 -5.367188 13.984375 -8.359375 C 14.867188 -11.347656 15.3125 -16.007812 15.3125 -22.34375 L 15.3125 -100.84375 C 15.3125 -107.175781 14.867188 -111.835938 13.984375 -114.828125 C 13.109375 -117.816406 11.203125 -119.78125 8.265625 -120.71875 L 8.265625 -123.1875 L 92.75 -123.1875 L 94.671875 -98.375 L 92.390625 -97.84375 C 88.867188 -106.53125 84.144531 -112.457031 78.21875 -115.625 C 72.300781 -118.789062 64.414062 -120.375 54.5625 -120.375 L 33.96875 -120.375 L 33.96875 -67.578125 L 50.859375 -67.578125 C 58.015625 -67.578125 63.644531 -68.046875 67.75 -68.984375 C 71.851562 -69.921875 74.898438 -71.382812 76.890625 -73.375 C 78.890625 -75.375 80.363281 -77.898438 81.3125 -80.953125 L 83.765625 -80.953125 L 83.765625 -51.390625 L 81.3125 -51.390625 C 80.363281 -54.441406 78.890625 -56.960938 76.890625 -58.953125 C 74.898438 -60.953125 71.851562 -62.421875 67.75 -63.359375 C 63.644531 -64.296875 58.015625 -64.765625 50.859375 -64.765625 L 33.96875 -64.765625 L 33.96875 -11.609375 C 33.96875 -5.742188 36.898438 -2.8125 42.765625 -2.8125 L 59.65625 -2.8125 C 68.570312 -2.8125 76.078125 -4.453125 82.171875 -7.734375 C 88.273438 -11.023438 92.972656 -17.128906 96.265625 -26.046875 L 98.546875 -25.6875 L 97.3125 0 Z M 8.265625 0 "/></g></g><g style="fill:#000000;fill-opacity:1;"><g transform="translate(2485.544395, 735.824098)"><path style="stroke:none" d="M 101.015625 1.40625 L 18.484375 -102.78125 L 18.484375 -32.90625 C 18.484375 -25.75 18.953125 -20.117188 19.890625 -16.015625 C 20.828125 -11.910156 22.289062 -8.859375 24.28125 -6.859375 C 26.28125 -4.867188 28.804688 -3.40625 31.859375 -2.46875 L 31.859375 0 L 8.265625 0 L 8.265625 -2.46875 C 11.203125 -3.40625 13.109375 -5.367188 13.984375 -8.359375 C 14.867188 -11.347656 15.3125 -16.007812 15.3125 -22.34375 L 15.3125 -100.84375 C 15.3125 -107.175781 14.722656 -111.835938 13.546875 -114.828125 C 12.378906 -117.816406 9.914062 -119.78125 6.15625 -120.71875 L 6.15625 -123.1875 L 26.046875 -123.1875 L 99.953125 -30.625 L 99.953125 -90.28125 C 99.953125 -97.4375 99.484375 -103.066406 98.546875 -107.171875 C 97.609375 -111.273438 96.140625 -114.320312 94.140625 -116.3125 C 92.148438 -118.3125 89.628906 -119.78125 86.578125 -120.71875 L 86.578125 -123.1875 L 110.34375 -123.1875 L 110.34375 -120.71875 C 107.40625 -119.78125 105.492188 -117.816406 104.609375 -114.828125 C 103.734375 -111.835938 103.296875 -107.175781 103.296875 -100.84375 L 103.296875 1.40625 Z M 101.015625 1.40625 "/></g></g><g style="fill:#000000;fill-opacity:1;"><g transform="translate(2637.242164, 735.824098)"><path style="stroke:none" d="M 8.265625 0 L 8.265625 -2.46875 C 11.203125 -3.40625 13.109375 -5.367188 13.984375 -8.359375 C 14.867188 -11.347656 15.3125 -16.007812 15.3125 -22.34375 L 15.3125 -100.84375 C 15.3125 -107.175781 14.867188 -111.835938 13.984375 -114.828125 C 13.109375 -117.816406 11.203125 -119.78125 8.265625 -120.71875 L 8.265625 -123.1875 L 41 -123.1875 L 41 -120.71875 C 38.070312 -119.78125 36.164062 -117.816406 35.28125 -114.828125 C 34.40625 -111.835938 33.96875 -107.175781 33.96875 -100.84375 L 33.96875 -22.34375 C 33.96875 -16.007812 34.40625 -11.347656 35.28125 -8.359375 C 36.164062 -5.367188 38.070312 -3.40625 41 -2.46875 L 41 0 Z M 8.265625 0 "/></g></g><g style="fill:#000000;fill-opacity:1;"><g transform="translate(2721.714197, 735.824098)"><path style="stroke:none" d="M 71.09375 0 L 71.09375 -2.46875 C 74.03125 -3.40625 74.851562 -5.078125 73.5625 -7.484375 C 72.269531 -9.890625 69.921875 -13.789062 66.515625 -19.1875 L 44 -56.671875 L 18.65625 -18.65625 C 15.132812 -13.375 13.550781 -9.53125 13.90625 -7.125 C 14.257812 -4.71875 16.367188 -3.164062 20.234375 -2.46875 L 20.234375 0 L -2.46875 0 L -2.46875 -2.46875 C 0.113281 -3.40625 2.78125 -5.015625 5.53125 -7.296875 C 8.289062 -9.585938 11.429688 -13.375 14.953125 -18.65625 L 42.234375 -59.65625 L 15.484375 -104 C 12.203125 -109.519531 9.296875 -113.484375 6.765625 -115.890625 C 4.242188 -118.296875 1.988281 -119.90625 0 -120.71875 L 0 -123.1875 L 32.734375 -123.1875 L 32.734375 -120.71875 C 29.796875 -119.78125 29 -118.140625 30.34375 -115.796875 C 31.695312 -113.453125 34.019531 -109.519531 37.3125 -104 L 56.3125 -72.5 L 77.609375 -104.53125 C 81.128906 -109.8125 82.710938 -113.65625 82.359375 -116.0625 C 82.003906 -118.46875 79.894531 -120.019531 76.03125 -120.71875 L 76.03125 -123.1875 L 98.734375 -123.1875 L 98.734375 -120.71875 C 96.148438 -119.90625 93.476562 -118.320312 90.71875 -115.96875 C 87.957031 -113.625 84.820312 -109.8125 81.3125 -104.53125 L 58.078125 -69.515625 L 88.34375 -19.1875 C 91.75 -13.789062 94.710938 -9.890625 97.234375 -7.484375 C 99.753906 -5.078125 101.953125 -3.40625 103.828125 -2.46875 L 103.828125 0 Z M 71.09375 0 "/></g></g><g style="fill:#000000;fill-opacity:1;"><g transform="translate(2082.195067, 845.595002)"><path style="stroke:none" d="M 3.71875 0 L 3.71875 -1.109375 C 5.03125 -1.523438 5.882812 -2.40625 6.28125 -3.75 C 6.675781 -5.09375 6.875 -7.191406 6.875 -10.046875 L 6.875 -45.3125 C 6.875 -48.15625 6.675781 -50.25 6.28125 -51.59375 C 5.882812 -52.9375 5.03125 -53.820312 3.71875 -54.25 L 3.71875 -55.359375 L 18.421875 -55.359375 L 18.421875 -54.25 C 17.109375 -53.820312 16.253906 -52.9375 15.859375 -51.59375 C 15.460938 -50.25 15.265625 -48.15625 15.265625 -45.3125 L 15.265625 -10.046875 C 15.265625 -7.191406 15.460938 -5.09375 15.859375 -3.75 C 16.253906 -2.40625 17.109375 -1.523438 18.421875 -1.109375 L 18.421875 0 Z M 3.71875 0 "/></g></g><g style="fill:#000000;fill-opacity:1;"><g transform="translate(2167.591029, 845.595002)"><path style="stroke:none" d="M 3.328125 0 L 3.328125 -1.109375 C 4.640625 -1.523438 5.492188 -2.40625 5.890625 -3.75 C 6.285156 -5.09375 6.484375 -7.191406 6.484375 -10.046875 L 6.484375 -40.5625 C 6.484375 -43.78125 6.285156 -46.3125 5.890625 -48.15625 C 5.492188 -50 4.898438 -51.367188 4.109375 -52.265625 C 3.316406 -53.160156 2.316406 -53.820312 1.109375 -54.25 L 1.109375 -55.359375 L 12.96875 -55.359375 L 32.5 -22.9375 L 51.078125 -55.359375 L 62.3125 -55.359375 L 62.3125 -54.25 C 61.101562 -53.820312 60.101562 -53.160156 59.3125 -52.265625 C 58.519531 -51.367188 57.925781 -50 57.53125 -48.15625 C 57.132812 -46.3125 56.9375 -43.78125 56.9375 -40.5625 L 56.9375 -10.046875 C 56.9375 -7.191406 57.132812 -5.09375 57.53125 -3.75 C 57.925781 -2.40625 58.78125 -1.523438 60.09375 -1.109375 L 60.09375 0 L 45.390625 0 L 45.390625 -1.109375 C 46.710938 -1.523438 47.566406 -2.40625 47.953125 -3.75 C 48.347656 -5.09375 48.546875 -7.191406 48.546875 -10.046875 L 48.546875 -48.3125 L 29.578125 -15.03125 L 27.75 -15.03125 L 7.90625 -47.609375 L 7.90625 -14.78125 C 7.90625 -11.570312 8.113281 -9.039062 8.53125 -7.1875 C 8.957031 -5.34375 9.617188 -3.972656 10.515625 -3.078125 C 11.410156 -2.179688 12.546875 -1.523438 13.921875 -1.109375 L 13.921875 0 Z M 3.328125 0 "/></g></g><g style="fill:#000000;fill-opacity:1;"><g transform="translate(2296.870927, 845.595002)"><path style="stroke:none" d="M 3.71875 0 L 3.71875 -1.109375 C 5.03125 -1.523438 5.882812 -2.40625 6.28125 -3.75 C 6.675781 -5.09375 6.875 -7.191406 6.875 -10.046875 L 6.875 -45.3125 C 6.875 -48.15625 6.675781 -50.25 6.28125 -51.59375 C 5.882812 -52.9375 5.03125 -53.820312 3.71875 -54.25 L 3.71875 -55.359375 L 20.328125 -55.359375 C 24.859375 -55.359375 28.5625 -54.867188 31.4375 -53.890625 C 34.3125 -52.910156 36.550781 -51.644531 38.15625 -50.09375 C 39.757812 -48.539062 40.878906 -46.867188 41.515625 -45.078125 C 42.148438 -43.285156 42.46875 -41.597656 42.46875 -40.015625 C 42.46875 -36.742188 41.648438 -33.710938 40.015625 -30.921875 C 38.378906 -28.128906 35.847656 -25.898438 32.421875 -24.234375 C 28.992188 -22.578125 24.566406 -21.75 19.140625 -21.75 L 15.265625 -21.75 L 15.265625 -10.046875 C 15.265625 -7.191406 15.460938 -5.09375 15.859375 -3.75 C 16.253906 -2.40625 17.109375 -1.523438 18.421875 -1.109375 L 18.421875 0 Z M 15.265625 -23.015625 L 18.734375 -23.015625 C 23.898438 -23.015625 27.65625 -24.382812 30 -27.125 C 32.351562 -29.863281 33.53125 -33.472656 33.53125 -37.953125 C 33.53125 -39.640625 33.289062 -41.421875 32.8125 -43.296875 C 32.34375 -45.171875 31.515625 -46.921875 30.328125 -48.546875 C 29.140625 -50.179688 27.515625 -51.515625 25.453125 -52.546875 C 23.398438 -53.578125 20.820312 -54.09375 17.71875 -54.09375 C 16.820312 -54.09375 16.003906 -54.039062 15.265625 -53.9375 Z M 15.265625 -23.015625 "/></g></g><g style="fill:#000000;fill-opacity:1;"><g transform="translate(2404.327425, 845.595002)"><path style="stroke:none" d="M -1.65625 0 L -1.65625 -1.109375 C -0.445312 -1.523438 0.695312 -2.335938 1.78125 -3.546875 C 2.863281 -4.765625 3.929688 -6.691406 4.984375 -9.328125 L 19.765625 -46.03125 C 20.347656 -47.5 20.296875 -48.921875 19.609375 -50.296875 L 18.578125 -52.515625 L 26.328125 -55.984375 L 45.9375 -9.25 C 47.050781 -6.664062 48.117188 -4.765625 49.140625 -3.546875 C 50.171875 -2.335938 51.132812 -1.523438 52.03125 -1.109375 L 52.03125 0 L 37.640625 0 L 37.640625 -1.109375 C 38.960938 -1.523438 39.453125 -2.335938 39.109375 -3.546875 C 38.765625 -4.765625 38.035156 -6.664062 36.921875 -9.25 L 32.1875 -20.640625 L 11.078125 -20.640625 L 6.484375 -9.328125 C 5.429688 -6.691406 5.007812 -4.738281 5.21875 -3.46875 C 5.425781 -2.207031 6.191406 -1.421875 7.515625 -1.109375 L 7.515625 0 Z M 11.546875 -21.90625 L 31.625 -21.90625 L 21.4375 -46.34375 Z M 11.546875 -21.90625 "/></g></g><g style="fill:#000000;fill-opacity:1;"><g transform="translate(2518.425854, 845.595002)"><path style="stroke:none" d="M 34.796875 0.796875 C 28.523438 0.796875 23.09375 -0.269531 18.5 -2.40625 C 13.914062 -4.539062 10.394531 -7.648438 7.9375 -11.734375 C 5.488281 -15.828125 4.265625 -20.828125 4.265625 -26.734375 C 4.265625 -30.734375 5.015625 -34.484375 6.515625 -37.984375 C 8.023438 -41.492188 10.1875 -44.59375 13 -47.28125 C 15.820312 -49.976562 19.195312 -52.085938 23.125 -53.609375 C 27.050781 -55.140625 31.441406 -55.90625 36.296875 -55.90625 C 38.242188 -55.90625 40.363281 -55.773438 42.65625 -55.515625 C 44.957031 -55.253906 47.144531 -54.84375 49.21875 -54.28125 C 51.300781 -53.726562 53.03125 -52.976562 54.40625 -52.03125 L 54.71875 -41.59375 L 53.765625 -41.359375 C 52.710938 -44.097656 51.160156 -46.429688 49.109375 -48.359375 C 47.054688 -50.285156 44.75 -51.773438 42.1875 -52.828125 C 39.632812 -53.878906 36.984375 -54.40625 34.234375 -54.40625 C 30.023438 -54.40625 26.296875 -53.484375 23.046875 -51.640625 C 19.804688 -49.796875 17.265625 -47.09375 15.421875 -43.53125 C 13.578125 -39.96875 12.65625 -35.550781 12.65625 -30.28125 C 12.65625 -26.488281 13.207031 -22.828125 14.3125 -19.296875 C 15.414062 -15.765625 17.007812 -12.613281 19.09375 -9.84375 C 21.175781 -7.070312 23.734375 -4.882812 26.765625 -3.28125 C 29.796875 -1.675781 33.238281 -0.875 37.09375 -0.875 C 41.519531 -0.875 45.234375 -2.109375 48.234375 -4.578125 C 51.242188 -7.054688 53.457031 -10.351562 54.875 -14.46875 L 55.90625 -14.3125 L 54.640625 -3 C 52.535156 -2.050781 49.910156 -1.179688 46.765625 -0.390625 C 43.628906 0.398438 39.640625 0.796875 34.796875 0.796875 Z M 34.796875 0.796875 "/></g></g><g style="fill:#000000;fill-opacity:1;"><g transform="translate(2641.06382, 845.595002)"><path style="stroke:none" d="M 14.859375 0 L 14.859375 -1.109375 C 16.179688 -1.523438 17.039062 -2.40625 17.4375 -3.75 C 17.832031 -5.09375 18.03125 -7.191406 18.03125 -10.046875 L 18.03125 -53.9375 L 15.578125 -53.9375 C 12.046875 -53.9375 9.273438 -53.34375 7.265625 -52.15625 C 5.265625 -50.96875 3.53125 -48.789062 2.0625 -45.625 L 1.109375 -45.78125 L 1.578125 -55.359375 L 42.78125 -55.359375 L 43.25 -45.78125 L 42.3125 -45.625 C 40.832031 -48.789062 39.085938 -50.96875 37.078125 -52.15625 C 35.078125 -53.34375 32.3125 -53.9375 28.78125 -53.9375 L 26.484375 -53.9375 L 26.484375 -10.046875 C 26.484375 -7.191406 26.679688 -5.09375 27.078125 -3.75 C 27.472656 -2.40625 28.332031 -1.523438 29.65625 -1.109375 L 29.65625 0 Z M 14.859375 0 "/></g></g><g clip-rule="nonzero" clip-path="url(#fa6cd7b31f)"><path style=" stroke:none;fill-rule:nonzero;fill:#b80000;fill-opacity:1;" d="M 2219.796875 342.128906 C 2151.535156 365.492188 2078.566406 369.527344 2006.605469 373.390625 C 2022.746094 387.847656 2043.257812 397.425781 2064.609375 400.789062 C 2029.132812 412.050781 1991.976562 418.4375 1954.820312 419.277344 C 2001.222656 448.691406 2060.238281 451.882812 2113.875 440.117188 C 2167.507812 428.351562 2216.941406 402.804688 2265.53125 377.59375 C 2190.878906 479.113281 2043.425781 519.449219 1927.414062 470.035156 C 1960.367188 506.003906 2007.277344 529.199219 2056.035156 533.402344 C 1982.898438 537.265625 1908.917969 526.339844 1839.984375 501.464844 C 1875.628906 550.710938 1933.96875 582.648438 1994.5 586.175781 C 1974.320312 585 1953.304688 589.539062 1932.792969 588.699219 C 1912.28125 587.6875 1891.769531 585 1871.59375 580.628906 C 1837.964844 573.234375 1792.738281 562.140625 1766.84375 537.9375 C 1788.03125 572.058594 1826.699219 594.917969 1866.882812 596.933594 C 1828.886719 606.007812 1788.871094 607.1875 1750.367188 600.464844 C 1749.191406 613.40625 1733.890625 623.152344 1721.617188 618.449219 C 1709.679688 629.035156 1693.203125 634.078125 1677.398438 631.726562 C 1698.917969 642.484375 1723.632812 645.507812 1747.507812 644.332031 C 1771.550781 643.15625 1795.089844 637.777344 1818.460938 632.398438 C 1767.011719 657.945312 1707.660156 667.023438 1650.832031 658.28125 C 1682.609375 677.441406 1722.625 676.769531 1758.941406 669.710938 C 1795.425781 662.652344 1830.566406 649.710938 1867.558594 645.675781 C 1830.902344 669.542969 1788.703125 684.667969 1745.492188 690.71875 C 1724.136719 693.578125 1702.617188 694.417969 1681.097656 692.738281 C 1660.246094 691.226562 1639.230469 683.324219 1618.71875 683.996094 C 1622.25 690.214844 1637.046875 706.351562 1622.921875 710.21875 C 1617.710938 711.5625 1612.328125 709.207031 1607.453125 707.023438 C 1607.621094 713.410156 1607.621094 720.132812 1604.59375 725.847656 C 1601.738281 731.5625 1594.84375 735.933594 1588.789062 733.75 C 1590.136719 740.640625 1584.082031 748.035156 1577.019531 748.203125 C 1573.660156 748.203125 1569.792969 746.859375 1566.933594 748.707031 C 1564.242188 750.21875 1563.402344 753.75 1562.058594 756.4375 C 1559.199219 762.152344 1553.3125 765.851562 1547.09375 767.53125 C 1532.464844 771.398438 1525.402344 768.035156 1516.996094 783.332031 C 1506.574219 802.660156 1507.582031 826.863281 1493.964844 844.679688 C 1487.574219 852.914062 1482.867188 859.132812 1477.484375 867.875 C 1471.265625 877.621094 1460.335938 884.679688 1448.902344 886.363281 C 1444.363281 887.035156 1439.152344 887.203125 1436.292969 890.898438 C 1432.929688 895.101562 1434.445312 902.160156 1430.238281 905.355469 C 1425.195312 909.21875 1417.460938 903.839844 1411.914062 906.867188 C 1407.710938 909.21875 1407.207031 914.765625 1404.851562 918.800781 C 1401.488281 924.851562 1394.257812 927.707031 1387.703125 930.0625 C 1367.527344 937.121094 1354.746094 950.566406 1331.210938 950.0625 C 1429.734375 984.6875 1538.351562 990.234375 1639.902344 965.695312 C 1565.589844 1034.4375 1476.308594 1088.558594 1377.949219 1112.257812 C 1311.539062 1128.222656 1241.257812 1129.90625 1174.675781 1114.441406 C 1142.226562 1106.878906 1110.617188 1094.777344 1080.855469 1080.324219 C 1048.574219 1064.691406 1020.328125 1042.503906 985.1875 1033.09375 C 944.164062 1022.167969 904.148438 1016.453125 861.777344 1014.4375 C 822.941406 1012.417969 786.621094 1035.613281 747.785156 1029.898438 C 740.386719 1028.890625 732.988281 1026.539062 725.421875 1027.378906 C 713.148438 1028.722656 700.035156 1033.765625 689.609375 1040.320312 C 683.894531 1043.847656 678.679688 1047.882812 673.972656 1052.589844 C 671.449219 1055.109375 662.371094 1062.84375 662.371094 1066.707031 C 662.539062 1049.902344 668.425781 1033.261719 678.34375 1019.648438 C 688.769531 1005.527344 701.546875 997.460938 717.6875 991.914062 C 718.191406 991.746094 716.007812 970.398438 716.34375 967.878906 C 717.6875 958.632812 721.890625 949.558594 728.449219 942.835938 C 737.695312 933.589844 750.640625 928.886719 763.253906 925.523438 C 774.347656 922.667969 785.613281 920.648438 796.542969 917.289062 C 807.472656 913.925781 818.0625 908.882812 826.300781 900.984375 C 822.601562 914.261719 809.65625 923.003906 796.710938 927.371094 C 783.597656 931.742188 769.640625 932.75 756.527344 937.121094 C 743.582031 941.324219 730.96875 949.726562 726.765625 962.5 C 729.457031 955.273438 740.21875 948.046875 746.269531 944.515625 C 754.507812 939.640625 765.605469 938.464844 775.019531 938.128906 C 809.152344 936.617188 841.601562 953.257812 875.902344 950.398438 C 878.59375 950.230469 881.28125 949.894531 883.972656 949.390625 C 926.171875 941.660156 856.566406 903.167969 845.300781 898.128906 C 829.664062 891.066406 813.691406 891.234375 797.550781 886.867188 C 760.058594 876.613281 723.066406 864.007812 687.929688 847.199219 C 654.300781 831.234375 622.1875 811.0625 596.632812 784.171875 C 573.09375 759.296875 555.773438 729.378906 535.765625 701.644531 C 515.757812 673.914062 491.882812 647.355469 460.441406 633.742188 C 476.917969 635.589844 492.890625 642.820312 505.164062 654.078125 C 475.574219 601.304688 427.320312 559.285156 370.996094 537.265625 C 399.074219 528.695312 421.941406 544.324219 448 553.402344 C 410.171875 517.265625 372.003906 480.960938 327.953125 452.890625 C 283.902344 424.65625 233.125 404.820312 180.835938 404.988281 C 201.683594 398.097656 224.046875 395.914062 245.734375 398.769531 C 167.890625 340.449219 88.867188 281.285156 -1.421875 244.644531 C 50.867188 230.191406 107.695312 246.15625 153.429688 275.066406 C 199.160156 303.976562 235.984375 344.816406 272.132812 385.15625 C 243.71875 309.691406 180.667969 248.175781 104.671875 221.449219 C 151.75 203.96875 204.542969 231.199219 238.671875 268.007812 C 272.804688 304.816406 295.503906 350.867188 329.800781 387.679688 C 318.03125 359.105469 306.09375 330.699219 294.324219 302.125 C 318.367188 326.835938 336.863281 356.917969 348.128906 389.527344 C 348.632812 321.289062 310.972656 253.890625 252.460938 218.59375 C 339.890625 240.609375 408.824219 321.960938 416.222656 411.710938 C 434.214844 335.910156 405.125 250.863281 344.261719 201.953125 C 388.480469 219.433594 431.355469 245.148438 458.59375 284.144531 C 496.757812 338.597656 499.113281 409.695312 500.121094 476.085938 C 503.316406 456.757812 506.511719 437.429688 509.707031 418.269531 C 524.164062 438.773438 533.75 462.808594 536.945312 487.683594 C 542.15625 439.277344 533.246094 389.359375 511.554688 345.828125 C 542.996094 387.847656 560.988281 439.78125 562.332031 492.222656 C 581.667969 422.804688 571.074219 345.492188 533.917969 283.804688 C 579.984375 321.289062 604.027344 379.105469 620.507812 436.082031 C 636.816406 493.0625 647.574219 552.5625 674.476562 605.335938 C 666.070312 535.417969 651.105469 466.167969 630.089844 398.9375 C 663.546875 427.679688 680.363281 471.378906 690.28125 514.40625 C 703.226562 570.378906 700.371094 621.808594 743.410156 664.5 C 726.597656 636.9375 731.8125 601.304688 741.226562 570.378906 C 750.640625 539.449219 763.589844 508.1875 760.226562 475.917969 C 774.011719 488.1875 776.535156 509.199219 773.171875 527.347656 C 769.808594 545.5 761.90625 562.644531 758.207031 580.628906 C 751.652344 613.742188 760.730469 649.878906 782.417969 675.761719 C 782.082031 618.785156 796.878906 561.636719 824.957031 511.886719 C 819.746094 544.660156 814.699219 577.941406 818.230469 610.882812 C 821.761719 643.828125 835.214844 677.105469 861.273438 697.609375 C 859.257812 677.777344 857.070312 657.777344 855.054688 637.945312 C 868.671875 677.609375 898.261719 711.5625 935.757812 730.21875 C 929.367188 715.761719 925.667969 699.964844 924.996094 684.164062 C 950.722656 723.160156 989.222656 753.75 1033.105469 770.050781 C 1029.574219 762.992188 1026.046875 756.101562 1022.515625 749.042969 C 1042.859375 762.992188 1060.175781 780.640625 1080.183594 795.097656 C 1100.863281 810.054688 1119.191406 828.375 1134.15625 849.214844 C 1142.058594 860.140625 1150.96875 872.914062 1164.25 873.417969 C 1176.695312 874.09375 1186.613281 863.839844 1194.683594 854.59375 C 1221.921875 823.164062 1249.328125 791.734375 1271.855469 756.773438 C 1282.785156 739.964844 1290.6875 721.816406 1300.441406 704.503906 C 1311.707031 684.332031 1325.15625 665.003906 1337.261719 645.507812 C 1403.507812 540.125 1486.058594 444.824219 1581.390625 364.652344 C 1580.71875 377.425781 1580.214844 390.03125 1579.542969 402.804688 C 1625.445312 379.945312 1665.292969 344.988281 1693.707031 302.292969 C 1701.777344 315.910156 1702.113281 334.0625 1694.210938 347.84375 C 1822.832031 290.023438 1946.578125 220.945312 2063.433594 141.949219 C 2048.46875 240.105469 1951.792969 318.429688 1852.929688 313.554688 C 1967.765625 320.785156 2084.953125 271.535156 2159.941406 184.136719 C 2130.855469 273.722656 2037.875 338.261719 1943.722656 334.0625 C 2013.832031 340.28125 2084.449219 320.109375 2147.164062 288.175781 C 2210.046875 256.242188 2266.203125 212.878906 2321.855469 169.851562 C 2257.964844 264.140625 2154.730469 330.867188 2042.585938 350.53125 C 2164.984375 333.222656 2282.511719 283.132812 2379.863281 206.996094 C 2351.785156 272.882812 2288.0625 318.597656 2219.796875 342.128906 Z M 2219.796875 342.128906 "/></g><path style=" stroke:none;fill-rule:nonzero;fill:#b80000;fill-opacity:1;" d="M 1760.960938 1010.90625 C 1841.832031 1025.867188 1914.296875 1069.398438 1981.550781 1116.460938 C 2048.972656 1163.519531 2113.707031 1215.289062 2188.019531 1250.585938 C 2358.171875 1331.429688 2567.5 1314.285156 2730.421875 1219.65625 C 2594.738281 1257.308594 2448.125 1262.855469 2314.121094 1219.65625 C 2220.472656 1189.40625 2135.898438 1136.796875 2049.308594 1089.734375 C 1962.722656 1042.671875 1870.75 1000.148438 1772.5625 992.921875 C 1707.996094 988.214844 1638.054688 1000.820312 1582.90625 1035.949219 C 1640.746094 1010.90625 1697.910156 999.308594 1760.960938 1010.90625 Z M 1760.960938 1010.90625 "/><path style=" stroke:none;fill-rule:nonzero;fill:#b80000;fill-opacity:1;" d="M 1962.554688 854.425781 C 2035.355469 855.4375 2104.960938 881.992188 2174.90625 902.328125 C 2244.851562 922.667969 2320.679688 936.785156 2389.613281 913.421875 C 2371.792969 941.996094 2339.507812 959.140625 2306.722656 966.535156 C 2239.804688 981.492188 2170.367188 961.15625 2105.972656 937.457031 C 2041.574219 913.757812 1976.339844 886.195312 1907.742188 886.53125 C 1802.65625 887.035156 1710.6875 951.070312 1606.445312 956.113281 C 1650.664062 950.566406 1695.890625 927.035156 1737.085938 910.734375 C 1783.488281 892.414062 1830.230469 874.09375 1879.160156 863.503906 C 1906.734375 857.453125 1934.644531 854.089844 1962.554688 854.425781 Z M 1962.554688 854.425781 "/><path style=" stroke:none;fill-rule:nonzero;fill:#b80000;fill-opacity:1;" d="M 1931.953125 932.078125 C 2023.753906 944.683594 2111.351562 977.628906 2201.472656 999.140625 C 2286.210938 1019.480469 2373.976562 1029.730469 2460.566406 1019.480469 C 2546.988281 1009.226562 2632.230469 977.628906 2698.308594 920.984375 C 2695.28125 961.660156 2661.65625 993.257812 2626.347656 1013.597656 C 2531.015625 1068.726562 2413.488281 1071.414062 2305.042969 1052.085938 C 2196.597656 1032.757812 2092.6875 993.761719 1985.082031 970.230469 C 1885.882812 948.550781 1776.09375 938.96875 1679.078125 975.441406 C 1719.9375 958.636719 1753.898438 938.800781 1798.621094 931.742188 C 1842.671875 925.1875 1887.734375 926.027344 1931.953125 932.078125 Z M 1931.953125 932.078125 "/><g clip-rule="nonzero" clip-path="url(#85e7484a27)"><path style=" stroke:none;fill-rule:nonzero;fill:#b80000;fill-opacity:1;" d="M 2196.089844 1052.085938 C 2302.519531 1084.523438 2415 1107.71875 2524.792969 1107.046875 C 2636.265625 1106.542969 2750.597656 1076.960938 2836.683594 1006.199219 C 2822.390625 1048.050781 2792.464844 1083.515625 2756.3125 1109.230469 C 2720.164062 1134.777344 2678.132812 1151.082031 2635.257812 1162.007812 C 2551.695312 1183.183594 2463.089844 1184.363281 2379.019531 1165.371094 C 2278.140625 1142.679688 2186.171875 1092.257812 2092.183594 1049.730469 C 2042.921875 1027.378906 1992.3125 1007.039062 1939.6875 993.929688 C 1913.289062 987.375 1886.554688 982.5 1859.488281 980.148438 C 1834.097656 977.964844 1811.90625 973.761719 1786.347656 980.988281 C 1856.796875 956.953125 1934.644531 967.542969 2006.101562 988.382812 C 2047.292969 1000.484375 2087.476562 1015.78125 2127.996094 1029.898438 C 2150.359375 1037.632812 2173.058594 1045.027344 2196.089844 1052.085938 Z M 2196.089844 1052.085938 "/></g></g></svg>