<svg xmlns="http://www.w3.org/2000/svg" xmlns:xlink="http://www.w3.org/1999/xlink" width="500" zoomAndPan="magnify" viewBox="0 0 375 374.999991" height="500" preserveAspectRatio="xMidYMid meet" version="1.2"><defs><clipPath id="cf84168136"><path d="M 96.351562 99.035156 L 250 99.035156 L 250 163 L 96.351562 163 Z M 96.351562 99.035156 "/></clipPath><clipPath id="ba7baf984f"><path d="M 211 152 L 278.480469 152 L 278.480469 166 L 211 166 Z M 211 152 "/></clipPath></defs><g id="b8703d7115"><g style="fill:#000000;fill-opacity:1;"><g transform="translate(62.415052, 240.855782)"><path style="stroke:none" d="M 2.171875 0 L 2.171875 -0.640625 C 2.941406 -0.890625 3.441406 -1.40625 3.671875 -2.1875 C 3.898438 -2.96875 4.015625 -4.191406 4.015625 -5.859375 L 4.015625 -26.421875 C 4.015625 -28.085938 3.898438 -29.3125 3.671875 -30.09375 C 3.441406 -30.875 2.941406 -31.390625 2.171875 -31.640625 L 2.171875 -32.28125 L 11.859375 -32.28125 C 14.503906 -32.28125 16.660156 -31.992188 18.328125 -31.421875 C 20.003906 -30.859375 21.3125 -30.125 22.25 -29.21875 C 23.1875 -28.3125 23.835938 -27.332031 24.203125 -26.28125 C 24.578125 -25.238281 24.765625 -24.257812 24.765625 -23.34375 C 24.765625 -21.4375 24.285156 -19.664062 23.328125 -18.03125 C 22.378906 -16.40625 20.90625 -15.109375 18.90625 -14.140625 C 16.90625 -13.171875 14.320312 -12.6875 11.15625 -12.6875 L 8.90625 -12.6875 L 8.90625 -5.859375 C 8.90625 -4.191406 9.019531 -2.96875 9.25 -2.1875 C 9.476562 -1.40625 9.976562 -0.890625 10.75 -0.640625 L 10.75 0 Z M 8.90625 -13.421875 L 10.9375 -13.421875 C 13.945312 -13.421875 16.132812 -14.21875 17.5 -15.8125 C 18.875 -17.414062 19.5625 -19.523438 19.5625 -22.140625 C 19.5625 -23.117188 19.421875 -24.15625 19.140625 -25.25 C 18.867188 -26.34375 18.382812 -27.363281 17.6875 -28.3125 C 17 -29.269531 16.050781 -30.046875 14.84375 -30.640625 C 13.644531 -31.242188 12.140625 -31.546875 10.328125 -31.546875 C 9.804688 -31.546875 9.332031 -31.515625 8.90625 -31.453125 Z M 8.90625 -13.421875 "/></g></g><g style="fill:#000000;fill-opacity:1;"><g transform="translate(97.427808, 240.855782)"><path style="stroke:none" d="M 2.171875 0 L 2.171875 -0.640625 C 2.941406 -0.890625 3.441406 -1.40625 3.671875 -2.1875 C 3.898438 -2.96875 4.015625 -4.191406 4.015625 -5.859375 L 4.015625 -26.421875 C 4.015625 -28.085938 3.898438 -29.3125 3.671875 -30.09375 C 3.441406 -30.875 2.941406 -31.390625 2.171875 -31.640625 L 2.171875 -32.28125 L 10.75 -32.28125 L 10.75 -31.640625 C 9.976562 -31.390625 9.476562 -30.875 9.25 -30.09375 C 9.019531 -29.3125 8.90625 -28.085938 8.90625 -26.421875 L 8.90625 -17.53125 L 24.953125 -17.53125 L 24.953125 -26.421875 C 24.953125 -28.085938 24.835938 -29.3125 24.609375 -30.09375 C 24.378906 -30.875 23.878906 -31.390625 23.109375 -31.640625 L 23.109375 -32.28125 L 31.6875 -32.28125 L 31.6875 -31.640625 C 30.914062 -31.390625 30.414062 -30.875 30.1875 -30.09375 C 29.957031 -29.3125 29.84375 -28.085938 29.84375 -26.421875 L 29.84375 -5.859375 C 29.84375 -4.191406 29.957031 -2.96875 30.1875 -2.1875 C 30.414062 -1.40625 30.914062 -0.890625 31.6875 -0.640625 L 31.6875 0 L 23.109375 0 L 23.109375 -0.640625 C 23.878906 -0.890625 24.378906 -1.40625 24.609375 -2.1875 C 24.835938 -2.96875 24.953125 -4.191406 24.953125 -5.859375 L 24.953125 -16.703125 L 8.90625 -16.703125 L 8.90625 -5.859375 C 8.90625 -4.191406 9.019531 -2.96875 9.25 -2.1875 C 9.476562 -1.40625 9.976562 -0.890625 10.75 -0.640625 L 10.75 0 Z M 2.171875 0 "/></g></g><g style="fill:#000000;fill-opacity:1;"><g transform="translate(140.513335, 240.855782)"><path style="stroke:none" d="M 19 0.46875 C 17.03125 0.46875 15.078125 0.140625 13.140625 -0.515625 C 11.203125 -1.179688 9.425781 -2.195312 7.8125 -3.5625 C 6.195312 -4.9375 4.90625 -6.675781 3.9375 -8.78125 C 2.96875 -10.894531 2.484375 -13.394531 2.484375 -16.28125 C 2.484375 -18.5625 2.882812 -20.691406 3.6875 -22.671875 C 4.488281 -24.648438 5.617188 -26.382812 7.078125 -27.875 C 8.535156 -29.375 10.28125 -30.546875 12.3125 -31.390625 C 14.34375 -32.234375 16.570312 -32.65625 19 -32.65625 C 20.9375 -32.65625 22.878906 -32.316406 24.828125 -31.640625 C 26.785156 -30.960938 28.5625 -29.9375 30.15625 -28.5625 C 31.757812 -27.195312 33.046875 -25.46875 34.015625 -23.375 C 34.984375 -21.289062 35.46875 -18.832031 35.46875 -16 C 35.46875 -13.207031 34.984375 -10.769531 34.015625 -8.6875 C 33.046875 -6.613281 31.753906 -4.898438 30.140625 -3.546875 C 28.523438 -2.191406 26.75 -1.179688 24.8125 -0.515625 C 22.875 0.140625 20.9375 0.46875 19 0.46875 Z M 7.28125 -19.09375 C 7.4375 -16.789062 7.90625 -14.550781 8.6875 -12.375 C 9.476562 -10.207031 10.503906 -8.269531 11.765625 -6.5625 C 13.023438 -4.863281 14.492188 -3.503906 16.171875 -2.484375 C 17.847656 -1.472656 19.664062 -0.96875 21.625 -0.96875 C 24 -0.96875 25.875 -1.5 27.25 -2.5625 C 28.632812 -3.625 29.613281 -5.015625 30.1875 -6.734375 C 30.757812 -8.453125 30.96875 -10.328125 30.8125 -12.359375 C 30.625 -14.816406 30.160156 -17.179688 29.421875 -19.453125 C 28.691406 -21.734375 27.703125 -23.78125 26.453125 -25.59375 C 25.203125 -27.414062 23.75 -28.847656 22.09375 -29.890625 C 20.4375 -30.929688 18.609375 -31.453125 16.609375 -31.453125 C 14.515625 -31.453125 12.742188 -30.941406 11.296875 -29.921875 C 9.847656 -28.910156 8.78125 -27.472656 8.09375 -25.609375 C 7.40625 -23.753906 7.132812 -21.582031 7.28125 -19.09375 Z M 7.28125 -19.09375 "/></g></g><g style="fill:#000000;fill-opacity:1;"><g transform="translate(187.566066, 240.855782)"><path style="stroke:none" d="M 2.171875 0 L 2.171875 -0.640625 C 2.941406 -0.890625 3.441406 -1.40625 3.671875 -2.1875 C 3.898438 -2.96875 4.015625 -4.191406 4.015625 -5.859375 L 4.015625 -26.421875 C 4.015625 -28.085938 3.898438 -29.3125 3.671875 -30.09375 C 3.441406 -30.875 2.941406 -31.390625 2.171875 -31.640625 L 2.171875 -32.28125 L 24.3125 -32.28125 L 24.8125 -25.78125 L 24.21875 -25.640625 C 23.289062 -27.921875 22.050781 -29.472656 20.5 -30.296875 C 18.945312 -31.128906 16.878906 -31.546875 14.296875 -31.546875 L 8.90625 -31.546875 L 8.90625 -17.71875 L 13.328125 -17.71875 C 15.203125 -17.71875 16.675781 -17.835938 17.75 -18.078125 C 18.832031 -18.328125 19.632812 -18.710938 20.15625 -19.234375 C 20.675781 -19.753906 21.0625 -20.414062 21.3125 -21.21875 L 21.953125 -21.21875 L 21.953125 -13.46875 L 21.3125 -13.46875 C 21.0625 -14.269531 20.675781 -14.929688 20.15625 -15.453125 C 19.632812 -15.972656 18.832031 -16.351562 17.75 -16.59375 C 16.675781 -16.84375 15.203125 -16.96875 13.328125 -16.96875 L 8.90625 -16.96875 L 8.90625 -3.046875 C 8.90625 -1.503906 9.671875 -0.734375 11.203125 -0.734375 L 15.640625 -0.734375 C 17.972656 -0.734375 19.9375 -1.164062 21.53125 -2.03125 C 23.132812 -2.894531 24.367188 -4.492188 25.234375 -6.828125 L 25.828125 -6.734375 L 25.5 0 Z M 2.171875 0 "/></g></g><g style="fill:#000000;fill-opacity:1;"><g transform="translate(224.239514, 240.855782)"><path style="stroke:none" d="M 26.46875 0.375 L 4.84375 -26.9375 L 4.84375 -8.625 C 4.84375 -6.75 4.960938 -5.269531 5.203125 -4.1875 C 5.453125 -3.113281 5.835938 -2.316406 6.359375 -1.796875 C 6.890625 -1.273438 7.550781 -0.890625 8.34375 -0.640625 L 8.34375 0 L 2.171875 0 L 2.171875 -0.640625 C 2.941406 -0.890625 3.441406 -1.40625 3.671875 -2.1875 C 3.898438 -2.96875 4.015625 -4.191406 4.015625 -5.859375 L 4.015625 -26.421875 C 4.015625 -28.085938 3.859375 -29.3125 3.546875 -30.09375 C 3.242188 -30.875 2.597656 -31.390625 1.609375 -31.640625 L 1.609375 -32.28125 L 6.828125 -32.28125 L 26.203125 -8.03125 L 26.203125 -23.65625 C 26.203125 -25.53125 26.078125 -27.003906 25.828125 -28.078125 C 25.585938 -29.160156 25.203125 -29.960938 24.671875 -30.484375 C 24.148438 -31.003906 23.488281 -31.390625 22.6875 -31.640625 L 22.6875 -32.28125 L 28.921875 -32.28125 L 28.921875 -31.640625 C 28.148438 -31.390625 27.648438 -30.875 27.421875 -30.09375 C 27.191406 -29.3125 27.078125 -28.085938 27.078125 -26.421875 L 27.078125 0.375 Z M 26.46875 0.375 "/></g></g><g style="fill:#000000;fill-opacity:1;"><g transform="translate(264.003673, 240.855782)"><path style="stroke:none" d="M 2.171875 0 L 2.171875 -0.640625 C 2.941406 -0.890625 3.441406 -1.40625 3.671875 -2.1875 C 3.898438 -2.96875 4.015625 -4.191406 4.015625 -5.859375 L 4.015625 -26.421875 C 4.015625 -28.085938 3.898438 -29.3125 3.671875 -30.09375 C 3.441406 -30.875 2.941406 -31.390625 2.171875 -31.640625 L 2.171875 -32.28125 L 10.75 -32.28125 L 10.75 -31.640625 C 9.976562 -31.390625 9.476562 -30.875 9.25 -30.09375 C 9.019531 -29.3125 8.90625 -28.085938 8.90625 -26.421875 L 8.90625 -5.859375 C 8.90625 -4.191406 9.019531 -2.96875 9.25 -2.1875 C 9.476562 -1.40625 9.976562 -0.890625 10.75 -0.640625 L 10.75 0 Z M 2.171875 0 "/></g></g><g style="fill:#000000;fill-opacity:1;"><g transform="translate(286.146117, 240.855782)"><path style="stroke:none" d="M 18.640625 0 L 18.640625 -0.640625 C 19.398438 -0.890625 19.609375 -1.328125 19.265625 -1.953125 C 18.929688 -2.585938 18.320312 -3.613281 17.4375 -5.03125 L 11.53125 -14.859375 L 4.890625 -4.890625 C 3.960938 -3.503906 3.546875 -2.492188 3.640625 -1.859375 C 3.734375 -1.234375 4.285156 -0.828125 5.296875 -0.640625 L 5.296875 0 L -0.640625 0 L -0.640625 -0.640625 C 0.0351562 -0.890625 0.734375 -1.3125 1.453125 -1.90625 C 2.171875 -2.507812 2.992188 -3.503906 3.921875 -4.890625 L 11.0625 -15.640625 L 4.0625 -27.265625 C 3.195312 -28.703125 2.429688 -29.734375 1.765625 -30.359375 C 1.109375 -30.992188 0.519531 -31.421875 0 -31.640625 L 0 -32.28125 L 8.578125 -32.28125 L 8.578125 -31.640625 C 7.804688 -31.390625 7.597656 -30.957031 7.953125 -30.34375 C 8.304688 -29.726562 8.914062 -28.703125 9.78125 -27.265625 L 14.765625 -19 L 20.34375 -27.390625 C 21.257812 -28.773438 21.671875 -29.78125 21.578125 -30.40625 C 21.492188 -31.039062 20.941406 -31.453125 19.921875 -31.640625 L 19.921875 -32.28125 L 25.875 -32.28125 L 25.875 -31.640625 C 25.195312 -31.421875 24.492188 -31.003906 23.765625 -30.390625 C 23.046875 -29.773438 22.226562 -28.773438 21.3125 -27.390625 L 15.21875 -18.21875 L 23.15625 -5.03125 C 24.050781 -3.613281 24.828125 -2.585938 25.484375 -1.953125 C 26.140625 -1.328125 26.71875 -0.890625 27.21875 -0.640625 L 27.21875 0 Z M 18.640625 0 "/></g></g><g style="fill:#000000;fill-opacity:1;"><g transform="translate(122.73135, 270.586451)"><path style="stroke:none" d="M 0.796875 0 L 0.796875 -0.234375 C 1.078125 -0.328125 1.257812 -0.515625 1.34375 -0.796875 C 1.4375 -1.085938 1.484375 -1.539062 1.484375 -2.15625 L 1.484375 -9.734375 C 1.484375 -10.347656 1.4375 -10.796875 1.34375 -11.078125 C 1.257812 -11.367188 1.078125 -11.5625 0.796875 -11.65625 L 0.796875 -11.890625 L 3.953125 -11.890625 L 3.953125 -11.65625 C 3.671875 -11.5625 3.488281 -11.367188 3.40625 -11.078125 C 3.320312 -10.796875 3.28125 -10.347656 3.28125 -9.734375 L 3.28125 -2.15625 C 3.28125 -1.539062 3.320312 -1.085938 3.40625 -0.796875 C 3.488281 -0.515625 3.671875 -0.328125 3.953125 -0.234375 L 3.953125 0 Z M 0.796875 0 "/></g></g><g style="fill:#000000;fill-opacity:1;"><g transform="translate(141.068662, 270.586451)"><path style="stroke:none" d="M 0.71875 0 L 0.71875 -0.234375 C 1 -0.328125 1.179688 -0.515625 1.265625 -0.796875 C 1.347656 -1.085938 1.390625 -1.539062 1.390625 -2.15625 L 1.390625 -8.71875 C 1.390625 -9.40625 1.347656 -9.945312 1.265625 -10.34375 C 1.179688 -10.738281 1.050781 -11.03125 0.875 -11.21875 C 0.707031 -11.414062 0.492188 -11.5625 0.234375 -11.65625 L 0.234375 -11.890625 L 2.78125 -11.890625 L 6.984375 -4.921875 L 10.96875 -11.890625 L 13.390625 -11.890625 L 13.390625 -11.65625 C 13.128906 -11.5625 12.910156 -11.414062 12.734375 -11.21875 C 12.566406 -11.03125 12.441406 -10.738281 12.359375 -10.34375 C 12.273438 -9.945312 12.234375 -9.40625 12.234375 -8.71875 L 12.234375 -2.15625 C 12.234375 -1.539062 12.273438 -1.085938 12.359375 -0.796875 C 12.441406 -0.515625 12.625 -0.328125 12.90625 -0.234375 L 12.90625 0 L 9.75 0 L 9.75 -0.234375 C 10.03125 -0.328125 10.210938 -0.515625 10.296875 -0.796875 C 10.378906 -1.085938 10.421875 -1.539062 10.421875 -2.15625 L 10.421875 -10.375 L 6.359375 -3.234375 L 5.96875 -3.234375 L 1.703125 -10.21875 L 1.703125 -3.171875 C 1.703125 -2.484375 1.742188 -1.941406 1.828125 -1.546875 C 1.921875 -1.148438 2.0625 -0.851562 2.25 -0.65625 C 2.445312 -0.46875 2.691406 -0.328125 2.984375 -0.234375 L 2.984375 0 Z M 0.71875 0 "/></g></g><g style="fill:#000000;fill-opacity:1;"><g transform="translate(168.829294, 270.586451)"><path style="stroke:none" d="M 0.796875 0 L 0.796875 -0.234375 C 1.078125 -0.328125 1.257812 -0.515625 1.34375 -0.796875 C 1.4375 -1.085938 1.484375 -1.539062 1.484375 -2.15625 L 1.484375 -9.734375 C 1.484375 -10.347656 1.4375 -10.796875 1.34375 -11.078125 C 1.257812 -11.367188 1.078125 -11.5625 0.796875 -11.65625 L 0.796875 -11.890625 L 4.359375 -11.890625 C 5.335938 -11.890625 6.132812 -11.785156 6.75 -11.578125 C 7.363281 -11.367188 7.84375 -11.097656 8.1875 -10.765625 C 8.539062 -10.429688 8.785156 -10.070312 8.921875 -9.6875 C 9.054688 -9.300781 9.125 -8.9375 9.125 -8.59375 C 9.125 -7.894531 8.945312 -7.242188 8.59375 -6.640625 C 8.238281 -6.035156 7.691406 -5.554688 6.953125 -5.203125 C 6.222656 -4.847656 5.273438 -4.671875 4.109375 -4.671875 L 3.28125 -4.671875 L 3.28125 -2.15625 C 3.28125 -1.539062 3.320312 -1.085938 3.40625 -0.796875 C 3.488281 -0.515625 3.671875 -0.328125 3.953125 -0.234375 L 3.953125 0 Z M 3.28125 -4.9375 L 4.03125 -4.9375 C 5.132812 -4.9375 5.9375 -5.226562 6.4375 -5.8125 C 6.945312 -6.40625 7.203125 -7.1875 7.203125 -8.15625 C 7.203125 -8.519531 7.148438 -8.898438 7.046875 -9.296875 C 6.941406 -9.703125 6.757812 -10.078125 6.5 -10.421875 C 6.25 -10.773438 5.90625 -11.0625 5.46875 -11.28125 C 5.03125 -11.507812 4.472656 -11.625 3.796875 -11.625 C 3.609375 -11.625 3.4375 -11.609375 3.28125 -11.578125 Z M 3.28125 -4.9375 "/></g></g><g style="fill:#000000;fill-opacity:1;"><g transform="translate(191.903726, 270.586451)"><path style="stroke:none" d="M -0.359375 0 L -0.359375 -0.234375 C -0.0976562 -0.328125 0.144531 -0.503906 0.375 -0.765625 C 0.613281 -1.023438 0.84375 -1.4375 1.0625 -2 L 4.25 -9.890625 C 4.375 -10.203125 4.363281 -10.503906 4.21875 -10.796875 L 3.984375 -11.28125 L 5.65625 -12.03125 L 9.875 -1.984375 C 10.101562 -1.429688 10.328125 -1.023438 10.546875 -0.765625 C 10.773438 -0.503906 10.984375 -0.328125 11.171875 -0.234375 L 11.171875 0 L 8.078125 0 L 8.078125 -0.234375 C 8.367188 -0.328125 8.472656 -0.503906 8.390625 -0.765625 C 8.316406 -1.023438 8.164062 -1.429688 7.9375 -1.984375 L 6.90625 -4.4375 L 2.375 -4.4375 L 1.390625 -2 C 1.160156 -1.4375 1.066406 -1.019531 1.109375 -0.75 C 1.160156 -0.476562 1.328125 -0.304688 1.609375 -0.234375 L 1.609375 0 Z M 2.484375 -4.703125 L 6.796875 -4.703125 L 4.609375 -9.953125 Z M 2.484375 -4.703125 "/></g></g><g style="fill:#000000;fill-opacity:1;"><g transform="translate(216.404399, 270.586451)"><path style="stroke:none" d="M 7.46875 0.171875 C 6.125 0.171875 4.957031 -0.0546875 3.96875 -0.515625 C 2.988281 -0.972656 2.234375 -1.640625 1.703125 -2.515625 C 1.179688 -3.398438 0.921875 -4.472656 0.921875 -5.734375 C 0.921875 -6.597656 1.082031 -7.40625 1.40625 -8.15625 C 1.726562 -8.914062 2.191406 -9.582031 2.796875 -10.15625 C 3.398438 -10.726562 4.125 -11.179688 4.96875 -11.515625 C 5.8125 -11.847656 6.753906 -12.015625 7.796875 -12.015625 C 8.210938 -12.015625 8.664062 -11.984375 9.15625 -11.921875 C 9.65625 -11.867188 10.128906 -11.78125 10.578125 -11.65625 C 11.023438 -11.539062 11.394531 -11.378906 11.6875 -11.171875 L 11.75 -8.9375 L 11.546875 -8.890625 C 11.316406 -9.472656 10.984375 -9.96875 10.546875 -10.375 C 10.109375 -10.789062 9.613281 -11.113281 9.0625 -11.34375 C 8.507812 -11.570312 7.941406 -11.6875 7.359375 -11.6875 C 6.453125 -11.6875 5.648438 -11.488281 4.953125 -11.09375 C 4.253906 -10.695312 3.707031 -10.113281 3.3125 -9.34375 C 2.914062 -8.582031 2.71875 -7.632812 2.71875 -6.5 C 2.71875 -5.6875 2.835938 -4.898438 3.078125 -4.140625 C 3.316406 -3.378906 3.65625 -2.703125 4.09375 -2.109375 C 4.539062 -1.515625 5.085938 -1.046875 5.734375 -0.703125 C 6.390625 -0.359375 7.132812 -0.1875 7.96875 -0.1875 C 8.914062 -0.1875 9.710938 -0.453125 10.359375 -0.984375 C 11.003906 -1.515625 11.476562 -2.222656 11.78125 -3.109375 L 12.015625 -3.078125 L 11.734375 -0.640625 C 11.285156 -0.441406 10.722656 -0.253906 10.046875 -0.078125 C 9.367188 0.0859375 8.507812 0.171875 7.46875 0.171875 Z M 7.46875 0.171875 "/></g></g><g style="fill:#000000;fill-opacity:1;"><g transform="translate(242.73879, 270.586451)"><path style="stroke:none" d="M 3.1875 0 L 3.1875 -0.234375 C 3.476562 -0.328125 3.664062 -0.515625 3.75 -0.796875 C 3.832031 -1.085938 3.875 -1.539062 3.875 -2.15625 L 3.875 -11.578125 L 3.34375 -11.578125 C 2.582031 -11.578125 1.988281 -11.445312 1.5625 -11.1875 C 1.132812 -10.9375 0.757812 -10.472656 0.4375 -9.796875 L 0.234375 -9.828125 L 0.34375 -11.890625 L 9.1875 -11.890625 L 9.296875 -9.828125 L 9.09375 -9.796875 C 8.769531 -10.472656 8.390625 -10.9375 7.953125 -11.1875 C 7.523438 -11.445312 6.9375 -11.578125 6.1875 -11.578125 L 5.6875 -11.578125 L 5.6875 -2.15625 C 5.6875 -1.539062 5.726562 -1.085938 5.8125 -0.796875 C 5.894531 -0.515625 6.082031 -0.328125 6.375 -0.234375 L 6.375 0 Z M 3.1875 0 "/></g></g><g clip-rule="nonzero" clip-path="url(#cf84168136)"><path style=" stroke:none;fill-rule:nonzero;fill:#b80000;fill-opacity:1;" d="M 238.867188 111.910156 C 234.480469 113.414062 229.796875 113.671875 225.175781 113.917969 C 226.210938 114.847656 227.527344 115.464844 228.898438 115.679688 C 226.621094 116.402344 224.234375 116.8125 221.851562 116.867188 C 224.828125 118.757812 228.621094 118.960938 232.0625 118.207031 C 235.507812 117.449219 238.683594 115.808594 241.800781 114.191406 C 237.007812 120.710938 227.539062 123.300781 220.089844 120.128906 C 222.207031 122.4375 225.21875 123.929688 228.347656 124.199219 C 223.652344 124.445312 218.902344 123.746094 214.476562 122.148438 C 216.765625 125.308594 220.511719 127.363281 224.398438 127.589844 C 223.101562 127.511719 221.753906 127.804688 220.433594 127.75 C 219.117188 127.6875 217.800781 127.511719 216.503906 127.230469 C 214.347656 126.757812 211.441406 126.042969 209.777344 124.488281 C 211.140625 126.683594 213.621094 128.148438 216.203125 128.28125 C 213.761719 128.863281 211.191406 128.9375 208.722656 128.507812 C 208.644531 129.335938 207.664062 129.964844 206.875 129.660156 C 206.109375 130.34375 205.050781 130.664062 204.035156 130.515625 C 205.417969 131.207031 207.003906 131.398438 208.539062 131.324219 C 210.082031 131.25 211.59375 130.902344 213.09375 130.558594 C 209.789062 132.199219 205.976562 132.78125 202.328125 132.21875 C 204.371094 133.453125 206.9375 133.40625 209.269531 132.953125 C 211.613281 132.5 213.871094 131.667969 216.246094 131.410156 C 213.890625 132.945312 211.183594 133.914062 208.40625 134.304688 C 207.035156 134.488281 205.65625 134.542969 204.273438 134.433594 C 202.933594 134.335938 201.585938 133.828125 200.265625 133.871094 C 200.492188 134.273438 201.445312 135.308594 200.535156 135.558594 C 200.203125 135.644531 199.855469 135.492188 199.542969 135.351562 C 199.554688 135.761719 199.554688 136.195312 199.359375 136.5625 C 199.175781 136.929688 198.734375 137.207031 198.34375 137.066406 C 198.429688 137.511719 198.042969 137.984375 197.589844 137.996094 C 197.375 137.996094 197.125 137.910156 196.941406 138.027344 C 196.769531 138.125 196.714844 138.351562 196.628906 138.527344 C 196.445312 138.894531 196.066406 139.128906 195.667969 139.238281 C 194.726562 139.488281 194.273438 139.269531 193.734375 140.253906 C 193.066406 141.496094 193.128906 143.050781 192.253906 144.195312 C 191.84375 144.722656 191.542969 145.121094 191.199219 145.683594 C 190.796875 146.308594 190.097656 146.765625 189.363281 146.871094 C 189.070312 146.914062 188.734375 146.925781 188.550781 147.164062 C 188.335938 147.433594 188.433594 147.886719 188.164062 148.089844 C 187.839844 148.339844 187.34375 147.996094 186.988281 148.1875 C 186.71875 148.339844 186.683594 148.695312 186.535156 148.957031 C 186.316406 149.34375 185.851562 149.527344 185.433594 149.679688 C 184.136719 150.132812 183.316406 150.996094 181.804688 150.964844 C 188.132812 153.1875 195.105469 153.542969 201.628906 151.96875 C 196.855469 156.382812 191.121094 159.859375 184.804688 161.382812 C 180.542969 162.410156 176.027344 162.515625 171.753906 161.523438 C 169.667969 161.039062 167.640625 160.257812 165.726562 159.332031 C 163.65625 158.328125 161.839844 156.902344 159.585938 156.296875 C 156.949219 155.59375 154.378906 155.226562 151.660156 155.097656 C 149.164062 154.96875 146.832031 156.460938 144.339844 156.09375 C 143.863281 156.027344 143.390625 155.875 142.902344 155.929688 C 142.117188 156.015625 141.273438 156.339844 140.605469 156.761719 C 140.238281 156.988281 139.902344 157.246094 139.601562 157.550781 C 139.4375 157.710938 138.855469 158.207031 138.855469 158.457031 C 138.867188 157.378906 139.242188 156.308594 139.878906 155.433594 C 140.550781 154.527344 141.371094 154.007812 142.40625 153.652344 C 142.4375 153.640625 142.300781 152.269531 142.320312 152.109375 C 142.40625 151.515625 142.675781 150.929688 143.097656 150.5 C 143.691406 149.90625 144.523438 149.601562 145.332031 149.386719 C 146.046875 149.203125 146.769531 149.074219 147.46875 148.859375 C 148.171875 148.640625 148.851562 148.320312 149.382812 147.8125 C 149.144531 148.664062 148.3125 149.226562 147.480469 149.507812 C 146.640625 149.785156 145.742188 149.851562 144.902344 150.132812 C 144.070312 150.402344 143.261719 150.941406 142.988281 151.761719 C 143.164062 151.296875 143.855469 150.835938 144.242188 150.605469 C 144.769531 150.292969 145.484375 150.21875 146.089844 150.195312 C 148.28125 150.101562 150.363281 151.167969 152.566406 150.984375 C 152.738281 150.972656 152.914062 150.953125 153.085938 150.921875 C 155.792969 150.425781 151.324219 147.953125 150.601562 147.628906 C 149.597656 147.175781 148.570312 147.183594 147.535156 146.902344 C 145.128906 146.246094 142.753906 145.4375 140.496094 144.355469 C 138.335938 143.332031 136.273438 142.035156 134.632812 140.308594 C 133.121094 138.710938 132.007812 136.789062 130.726562 135.007812 C 129.441406 133.222656 127.90625 131.519531 125.886719 130.644531 C 126.945312 130.761719 127.972656 131.226562 128.757812 131.949219 C 126.859375 128.558594 123.761719 125.859375 120.144531 124.445312 C 121.945312 123.894531 123.414062 124.898438 125.089844 125.484375 C 122.660156 123.160156 120.207031 120.828125 117.378906 119.027344 C 114.550781 117.214844 111.289062 115.9375 107.933594 115.949219 C 109.269531 115.507812 110.707031 115.367188 112.101562 115.550781 C 107.101562 111.804688 102.027344 108.003906 96.230469 105.648438 C 99.585938 104.722656 103.234375 105.746094 106.171875 107.605469 C 109.109375 109.460938 111.472656 112.085938 113.796875 114.675781 C 111.96875 109.828125 107.921875 105.875 103.042969 104.160156 C 106.066406 103.035156 109.453125 104.785156 111.648438 107.148438 C 113.839844 109.515625 115.296875 112.472656 117.5 114.835938 C 116.742188 113.003906 115.976562 111.175781 115.21875 109.34375 C 116.765625 110.929688 117.953125 112.863281 118.675781 114.957031 C 118.707031 110.574219 116.289062 106.242188 112.53125 103.976562 C 118.144531 105.390625 122.574219 110.617188 123.046875 116.382812 C 124.203125 111.511719 122.335938 106.050781 118.425781 102.90625 C 121.265625 104.03125 124.019531 105.683594 125.769531 108.1875 C 128.21875 111.683594 128.371094 116.253906 128.4375 120.515625 C 128.640625 119.273438 128.847656 118.035156 129.050781 116.800781 C 129.980469 118.121094 130.59375 119.664062 130.800781 121.261719 C 131.136719 118.152344 130.5625 114.945312 129.171875 112.148438 C 131.1875 114.847656 132.34375 118.183594 132.429688 121.554688 C 133.671875 117.09375 132.992188 112.128906 130.605469 108.164062 C 133.5625 110.574219 135.109375 114.285156 136.167969 117.945312 C 137.214844 121.605469 137.90625 125.429688 139.632812 128.820312 C 139.09375 124.328125 138.132812 119.878906 136.78125 115.5625 C 138.929688 117.40625 140.011719 120.214844 140.648438 122.976562 C 141.476562 126.574219 141.292969 129.878906 144.058594 132.621094 C 142.980469 130.847656 143.3125 128.558594 143.917969 126.574219 C 144.523438 124.585938 145.355469 122.578125 145.136719 120.507812 C 146.023438 121.292969 146.1875 122.644531 145.96875 123.808594 C 145.753906 124.976562 145.246094 126.078125 145.007812 127.230469 C 144.585938 129.359375 145.171875 131.679688 146.5625 133.34375 C 146.542969 129.683594 147.492188 126.011719 149.296875 122.816406 C 148.960938 124.921875 148.636719 127.058594 148.863281 129.175781 C 149.089844 131.292969 149.953125 133.429688 151.628906 134.746094 C 151.496094 133.472656 151.355469 132.1875 151.226562 130.914062 C 152.101562 133.460938 154.003906 135.644531 156.410156 136.839844 C 156 135.914062 155.761719 134.898438 155.71875 133.882812 C 157.371094 136.386719 159.84375 138.351562 162.660156 139.398438 C 162.433594 138.945312 162.207031 138.503906 161.980469 138.050781 C 163.289062 138.945312 164.398438 140.082031 165.683594 141.007812 C 167.011719 141.96875 168.191406 143.148438 169.152344 144.484375 C 169.65625 145.1875 170.230469 146.007812 171.082031 146.039062 C 171.882812 146.082031 172.519531 145.425781 173.039062 144.832031 C 174.785156 142.8125 176.546875 140.792969 177.992188 138.546875 C 178.695312 137.46875 179.203125 136.300781 179.828125 135.191406 C 180.550781 133.894531 181.414062 132.652344 182.191406 131.398438 C 186.445312 124.628906 191.75 118.507812 197.871094 113.359375 C 197.828125 114.179688 197.792969 114.988281 197.75 115.808594 C 200.699219 114.339844 203.257812 112.09375 205.082031 109.351562 C 205.601562 110.226562 205.621094 111.394531 205.113281 112.277344 C 213.375 108.566406 221.320312 104.128906 228.824219 99.050781 C 227.863281 105.359375 221.65625 110.390625 215.308594 110.078125 C 222.679688 110.539062 230.207031 107.378906 235.023438 101.761719 C 233.152344 107.515625 227.183594 111.664062 221.136719 111.394531 C 225.640625 111.792969 230.175781 110.496094 234.203125 108.445312 C 238.238281 106.394531 241.84375 103.609375 245.417969 100.84375 C 241.316406 106.902344 234.6875 111.1875 227.484375 112.453125 C 235.34375 111.339844 242.894531 108.121094 249.144531 103.230469 C 247.339844 107.464844 243.25 110.398438 238.867188 111.910156 Z M 238.867188 111.910156 "/></g><path style=" stroke:none;fill-rule:nonzero;fill:#b80000;fill-opacity:1;" d="M 209.402344 154.871094 C 214.59375 155.832031 219.246094 158.628906 223.566406 161.652344 C 227.894531 164.675781 232.050781 168 236.824219 170.269531 C 247.75 175.460938 261.191406 174.359375 271.65625 168.28125 C 262.941406 170.699219 253.527344 171.054688 244.921875 168.28125 C 238.910156 166.339844 233.476562 162.957031 227.917969 159.9375 C 222.355469 156.914062 216.453125 154.179688 210.144531 153.71875 C 206 153.414062 201.507812 154.222656 197.96875 156.480469 C 201.679688 154.871094 205.351562 154.128906 209.402344 154.871094 Z M 209.402344 154.871094 "/><path style=" stroke:none;fill-rule:nonzero;fill:#b80000;fill-opacity:1;" d="M 222.347656 144.820312 C 227.019531 144.886719 231.492188 146.589844 235.984375 147.898438 C 240.472656 149.203125 245.34375 150.109375 249.769531 148.609375 C 248.625 150.445312 246.554688 151.546875 244.449219 152.023438 C 240.148438 152.984375 235.691406 151.675781 231.554688 150.152344 C 227.421875 148.632812 223.230469 146.859375 218.828125 146.882812 C 212.078125 146.914062 206.171875 151.027344 199.480469 151.351562 C 202.316406 150.996094 205.222656 149.484375 207.867188 148.4375 C 210.847656 147.261719 213.847656 146.082031 216.992188 145.402344 C 218.761719 145.015625 220.554688 144.796875 222.347656 144.820312 Z M 222.347656 144.820312 "/><path style=" stroke:none;fill-rule:nonzero;fill:#b80000;fill-opacity:1;" d="M 220.382812 149.808594 C 226.277344 150.617188 231.902344 152.734375 237.6875 154.117188 C 243.128906 155.421875 248.765625 156.082031 254.328125 155.421875 C 259.875 154.765625 265.351562 152.734375 269.59375 149.097656 C 269.398438 151.707031 267.238281 153.738281 264.972656 155.042969 C 258.851562 158.585938 251.304688 158.757812 244.339844 157.515625 C 237.375 156.277344 230.703125 153.769531 223.792969 152.257812 C 217.421875 150.867188 210.371094 150.25 204.144531 152.59375 C 206.765625 151.515625 208.949219 150.242188 211.820312 149.785156 C 214.648438 149.367188 217.542969 149.417969 220.382812 149.808594 Z M 220.382812 149.808594 "/><g clip-rule="nonzero" clip-path="url(#ba7baf984f)"><path style=" stroke:none;fill-rule:nonzero;fill:#b80000;fill-opacity:1;" d="M 237.34375 157.515625 C 244.175781 159.601562 251.402344 161.089844 258.449219 161.046875 C 265.609375 161.015625 272.949219 159.117188 278.480469 154.570312 C 277.5625 157.257812 275.640625 159.535156 273.316406 161.1875 C 270.996094 162.828125 268.296875 163.875 265.542969 164.578125 C 260.179688 165.9375 254.488281 166.015625 249.089844 164.792969 C 242.613281 163.335938 236.707031 160.097656 230.671875 157.367188 C 227.507812 155.929688 224.257812 154.625 220.878906 153.78125 C 219.183594 153.359375 217.464844 153.046875 215.726562 152.894531 C 214.097656 152.757812 212.671875 152.484375 211.03125 152.949219 C 215.554688 151.40625 220.554688 152.085938 225.144531 153.425781 C 227.789062 154.203125 230.367188 155.183594 232.96875 156.09375 C 234.40625 156.589844 235.863281 157.0625 237.34375 157.515625 Z M 237.34375 157.515625 "/></g></g></svg>